<mxfile host="65bd71144e" pages="2">
    <diagram id="AfMdnE-g4ZWjtciFe64G" name="Conceitual - Peaple">
        <mxGraphModel dx="1811" dy="539" grid="1" gridSize="10" guides="1" tooltips="1" connect="1" arrows="1" fold="1" page="1" pageScale="1" pageWidth="1169" pageHeight="827" background="#FFFFFF" math="0" shadow="1">
            <root>
                <mxCell id="0"/>
                <mxCell id="1" parent="0"/>
                <mxCell id="2" value="Peaple" style="swimlane;childLayout=stackLayout;horizontal=1;startSize=30;horizontalStack=0;rounded=1;fontSize=14;fontStyle=0;strokeWidth=2;resizeParent=0;resizeLast=1;shadow=0;dashed=0;align=center;labelBackgroundColor=none;labelBorderColor=none;fillColor=#60a917;fontColor=#ffffff;strokeColor=#2D7600;" parent="1" vertex="1">
                    <mxGeometry x="-490" y="30" width="160" height="160" as="geometry">
                        <mxRectangle x="310" y="50" width="80" height="30" as="alternateBounds"/>
                    </mxGeometry>
                </mxCell>
                <mxCell id="3" value="&lt;div style=&quot;font-size: 14px&quot;&gt;&lt;u&gt;&lt;font style=&quot;font-size: 14px&quot; color=&quot;#000000&quot;&gt;&lt;b&gt;cpf&lt;/b&gt;&lt;/font&gt;&lt;/u&gt;&lt;/div&gt;&lt;div style=&quot;font-size: 14px&quot;&gt;&lt;span&gt;&lt;font style=&quot;font-size: 14px&quot; color=&quot;#000000&quot;&gt;rg&lt;/font&gt;&lt;/span&gt;&lt;/div&gt;&lt;div style=&quot;font-size: 14px&quot;&gt;&lt;span&gt;&lt;font style=&quot;font-size: 14px&quot; color=&quot;#000000&quot;&gt;first_name&lt;/font&gt;&lt;/span&gt;&lt;/div&gt;&lt;div style=&quot;font-size: 14px&quot;&gt;&lt;font style=&quot;font-size: 14px&quot; color=&quot;#000000&quot;&gt;surname&lt;/font&gt;&lt;/div&gt;&lt;div style=&quot;font-size: 14px&quot;&gt;&lt;font style=&quot;font-size: 14px&quot; color=&quot;#000000&quot;&gt;gender&lt;/font&gt;&lt;/div&gt;&lt;div style=&quot;font-size: 14px&quot;&gt;&lt;font style=&quot;font-size: 14px&quot;&gt;&lt;font color=&quot;#000000&quot;&gt;date_birth&lt;/font&gt;&lt;br&gt;&lt;/font&gt;&lt;/div&gt;" style="text;html=1;align=left;verticalAlign=top;resizable=0;points=[];autosize=1;strokeColor=none;fillColor=none;" parent="2" vertex="1">
                    <mxGeometry y="30" width="160" height="130" as="geometry"/>
                </mxCell>
                <mxCell id="4" value="Studant" style="swimlane;childLayout=stackLayout;horizontal=1;startSize=40;horizontalStack=0;rounded=1;fontSize=14;fontStyle=0;strokeWidth=2;resizeParent=0;resizeLast=1;shadow=0;dashed=0;align=center;fillColor=#60a917;fontColor=#ffffff;strokeColor=#2D7600;" parent="1" vertex="1">
                    <mxGeometry x="-180" y="310" width="160" height="100" as="geometry"/>
                </mxCell>
                <mxCell id="5" value="&lt;font color=&quot;#000000&quot;&gt;enrollment&lt;/font&gt;" style="text;html=1;align=left;verticalAlign=top;resizable=0;points=[];autosize=1;strokeColor=none;fillColor=none;fontSize=14;" parent="4" vertex="1">
                    <mxGeometry y="40" width="160" height="60" as="geometry"/>
                </mxCell>
                <mxCell id="6" value="Teacher" style="swimlane;childLayout=stackLayout;horizontal=1;startSize=30;horizontalStack=0;rounded=1;fontSize=14;fontStyle=0;strokeWidth=2;resizeParent=0;resizeLast=1;shadow=0;dashed=0;align=center;fillColor=#60a917;fontColor=#ffffff;strokeColor=#2D7600;" parent="1" vertex="1">
                    <mxGeometry x="-1080" y="290" width="170" height="120" as="geometry"/>
                </mxCell>
                <mxCell id="7" value="&lt;font color=&quot;#ff3333&quot;&gt;carteira_nacio_professor&lt;/font&gt;" style="text;html=1;align=left;verticalAlign=top;resizable=0;points=[];autosize=1;strokeColor=none;fillColor=none;fontSize=14;" parent="6" vertex="1">
                    <mxGeometry y="30" width="170" height="90" as="geometry"/>
                </mxCell>
                <mxCell id="8" value="&lt;font color=&quot;#000000&quot; style=&quot;&quot;&gt;Extends&lt;/font&gt;" style="endArrow=block;endSize=16;endFill=0;html=1;rounded=0;fontSize=14;exitX=0.5;exitY=0;exitDx=0;exitDy=0;strokeColor=#000000;labelBackgroundColor=none;" parent="1" source="4" target="3" edge="1">
                    <mxGeometry width="160" relative="1" as="geometry">
                        <mxPoint x="-160" y="320" as="sourcePoint"/>
                        <mxPoint y="320" as="targetPoint"/>
                    </mxGeometry>
                </mxCell>
                <mxCell id="9" value="authorized_person" style="swimlane;childLayout=stackLayout;horizontal=1;startSize=30;horizontalStack=0;rounded=1;fontSize=14;fontStyle=0;strokeWidth=2;resizeParent=0;resizeLast=1;shadow=0;dashed=0;align=center;labelBackgroundColor=none;labelBorderColor=none;fillColor=#60a917;fontColor=#ffffff;strokeColor=#2D7600;" parent="1" vertex="1">
                    <mxGeometry x="-770" y="570" width="160" height="120" as="geometry"/>
                </mxCell>
                <mxCell id="10" value="&lt;font color=&quot;#000000&quot;&gt;register&lt;/font&gt;" style="text;html=1;align=left;verticalAlign=top;resizable=0;points=[];autosize=1;strokeColor=none;fillColor=none;fontSize=14;fontColor=#97D077;" parent="9" vertex="1">
                    <mxGeometry y="30" width="160" height="90" as="geometry"/>
                </mxCell>
                <mxCell id="11" value="Parent_student" style="swimlane;childLayout=stackLayout;horizontal=1;startSize=30;horizontalStack=0;rounded=1;fontSize=14;fontStyle=0;strokeWidth=2;resizeParent=0;resizeLast=1;shadow=0;dashed=0;align=center;labelBackgroundColor=none;labelBorderColor=none;glass=0;sketch=0;swimlaneLine=1;fillColor=#60a917;fontColor=#ffffff;strokeColor=#2D7600;arcSize=14;" parent="1" vertex="1">
                    <mxGeometry x="-180" y="570" width="160" height="120" as="geometry"/>
                </mxCell>
                <mxCell id="12" value="&lt;font color=&quot;#000000&quot;&gt;register&lt;/font&gt;" style="text;html=1;align=left;verticalAlign=top;resizable=0;points=[];autosize=1;fontSize=14;" parent="11" vertex="1">
                    <mxGeometry y="30" width="160" height="90" as="geometry"/>
                </mxCell>
                <mxCell id="13" value="&lt;span style=&quot;&quot;&gt;Extends&lt;/span&gt;" style="endArrow=block;endSize=16;endFill=0;html=1;rounded=0;fontSize=14;fontColor=#000000;exitX=0.438;exitY=0;exitDx=0;exitDy=0;exitPerimeter=0;edgeStyle=orthogonalEdgeStyle;strokeColor=#000000;labelBackgroundColor=none;" parent="1" source="9" target="3" edge="1">
                    <mxGeometry x="-0.8806" width="160" relative="1" as="geometry">
                        <mxPoint x="-230" y="350" as="sourcePoint"/>
                        <mxPoint x="-70" y="350" as="targetPoint"/>
                        <Array as="points">
                            <mxPoint x="-700" y="470"/>
                            <mxPoint x="-410" y="470"/>
                        </Array>
                        <mxPoint as="offset"/>
                    </mxGeometry>
                </mxCell>
                <mxCell id="14" value="&lt;font color=&quot;#000000&quot;&gt;Extends&lt;/font&gt;" style="endArrow=block;endSize=16;endFill=0;html=1;rounded=0;fontSize=14;fontColor=#FFFFFF;exitX=0.5;exitY=0;exitDx=0;exitDy=0;edgeStyle=orthogonalEdgeStyle;labelBackgroundColor=none;strokeColor=#000000;" parent="1" source="11" edge="1">
                    <mxGeometry x="-0.8841" width="160" relative="1" as="geometry">
                        <mxPoint x="-230" y="310" as="sourcePoint"/>
                        <mxPoint x="-410" y="190" as="targetPoint"/>
                        <Array as="points">
                            <mxPoint x="-100" y="470"/>
                            <mxPoint x="-410" y="470"/>
                        </Array>
                        <mxPoint as="offset"/>
                    </mxGeometry>
                </mxCell>
                <mxCell id="15" value="Staff_member" style="swimlane;childLayout=stackLayout;horizontal=1;startSize=30;horizontalStack=0;rounded=1;fontSize=14;fontStyle=0;strokeWidth=2;resizeParent=0;resizeLast=1;shadow=0;dashed=0;align=center;glass=0;labelBackgroundColor=none;labelBorderColor=none;sketch=0;fontColor=#ffffff;fillColor=#60a917;strokeColor=#2D7600;" parent="1" vertex="1">
                    <mxGeometry x="-770" y="290" width="160" height="120" as="geometry"/>
                </mxCell>
                <mxCell id="16" value="&lt;font color=&quot;#000000&quot;&gt;ctps&lt;br&gt;pis&lt;/font&gt;" style="text;html=1;align=left;verticalAlign=top;resizable=0;points=[];autosize=1;strokeColor=none;fillColor=none;fontSize=14;fontColor=#FFFFFF;" parent="15" vertex="1">
                    <mxGeometry y="30" width="160" height="90" as="geometry"/>
                </mxCell>
                <mxCell id="17" value="&lt;font style=&quot;&quot;&gt;Extends&lt;/font&gt;" style="endArrow=block;endSize=16;endFill=0;html=1;rounded=0;fontSize=14;fontColor=#000000;entryX=-0.012;entryY=0.854;entryDx=0;entryDy=0;entryPerimeter=0;exitX=0.5;exitY=0;exitDx=0;exitDy=0;strokeColor=#000000;labelBackgroundColor=none;" parent="1" source="15" target="3" edge="1">
                    <mxGeometry width="160" relative="1" as="geometry">
                        <mxPoint x="-660" y="410" as="sourcePoint"/>
                        <mxPoint x="-500" y="410" as="targetPoint"/>
                    </mxGeometry>
                </mxCell>
                <mxCell id="18" value="&lt;font style=&quot;&quot;&gt;Extends&lt;/font&gt;" style="endArrow=block;endSize=16;endFill=0;html=1;rounded=0;fontSize=14;fontColor=#000000;exitX=0.994;exitY=0.389;exitDx=0;exitDy=0;exitPerimeter=0;entryX=0.006;entryY=0.389;entryDx=0;entryDy=0;entryPerimeter=0;strokeColor=#000000;labelBackgroundColor=none;" parent="1" source="7" target="16" edge="1">
                    <mxGeometry x="0.0004" y="15" width="160" relative="1" as="geometry">
                        <mxPoint x="-660" y="410" as="sourcePoint"/>
                        <mxPoint x="-500" y="410" as="targetPoint"/>
                        <mxPoint as="offset"/>
                    </mxGeometry>
                </mxCell>
            </root>
        </mxGraphModel>
    </diagram>
    <diagram id="pSEHbn4MYelLucld0nCO" name="Parent">
        <mxGraphModel dx="2748" dy="539" grid="1" gridSize="10" guides="1" tooltips="1" connect="1" arrows="1" fold="1" page="1" pageScale="1" pageWidth="827" pageHeight="1169" background="#ffffff" math="0" shadow="0">
            <root>
                <mxCell id="Catww3blxHvyXf62gdcK-0"/>
                <mxCell id="Catww3blxHvyXf62gdcK-1" parent="Catww3blxHvyXf62gdcK-0"/>
                <mxCell id="dPK-7Pq9csTcs9CNnk73-0" value="student" style="swimlane;childLayout=stackLayout;horizontal=1;startSize=40;horizontalStack=0;rounded=1;fontSize=14;fontStyle=0;strokeWidth=2;resizeParent=0;resizeLast=1;shadow=0;dashed=0;align=center;fillColor=#60a917;fontColor=#ffffff;strokeColor=#2D7600;arcSize=6;" parent="Catww3blxHvyXf62gdcK-1" vertex="1">
                    <mxGeometry x="-1050" y="56" width="160" height="150" as="geometry"/>
                </mxCell>
                <mxCell id="dPK-7Pq9csTcs9CNnk73-1" value="&lt;font color=&quot;#000000&quot;&gt;&lt;u&gt;cpf&lt;/u&gt;&lt;br&gt;enrollment&lt;br&gt;first_name&lt;br&gt;surname&lt;br&gt;gender&lt;br&gt;date_birth&lt;/font&gt;" style="text;html=1;align=left;verticalAlign=top;resizable=0;points=[];autosize=1;strokeColor=none;fillColor=none;fontSize=14;" parent="dPK-7Pq9csTcs9CNnk73-0" vertex="1">
                    <mxGeometry y="40" width="160" height="110" as="geometry"/>
                </mxCell>
                <mxCell id="dPK-7Pq9csTcs9CNnk73-2" value="address" style="shape=table;startSize=30;container=1;collapsible=1;childLayout=tableLayout;fixedRows=1;rowLines=0;fontStyle=1;align=center;resizeLast=1;fontFamily=Helvetica;gradientDirection=radial;rounded=1;fontSize=14;strokeWidth=2;swimlaneFillColor=none;fillColor=#60a917;fontColor=#ffffff;strokeColor=#2D7600;" parent="Catww3blxHvyXf62gdcK-1" vertex="1">
                    <mxGeometry x="-1325.5" y="218" width="180" height="312" as="geometry"/>
                </mxCell>
                <mxCell id="dPK-7Pq9csTcs9CNnk73-3" value="" style="shape=tableRow;horizontal=0;startSize=0;swimlaneHead=0;swimlaneBody=0;fillColor=none;collapsible=0;dropTarget=0;points=[[0,0.5],[1,0.5]];portConstraint=eastwest;top=0;left=0;right=0;bottom=1;fontSize=14;" parent="dPK-7Pq9csTcs9CNnk73-2" vertex="1">
                    <mxGeometry y="30" width="180" height="30" as="geometry"/>
                </mxCell>
                <mxCell id="dPK-7Pq9csTcs9CNnk73-4" value="" style="shape=partialRectangle;connectable=0;fillColor=none;top=0;left=0;bottom=0;right=0;fontStyle=1;overflow=hidden;fontSize=14;" parent="dPK-7Pq9csTcs9CNnk73-3" vertex="1">
                    <mxGeometry width="30" height="30" as="geometry">
                        <mxRectangle width="30" height="30" as="alternateBounds"/>
                    </mxGeometry>
                </mxCell>
                <mxCell id="dPK-7Pq9csTcs9CNnk73-5" value="id" style="shape=partialRectangle;connectable=0;fillColor=none;top=0;left=0;bottom=0;right=0;align=left;spacingLeft=6;fontStyle=5;overflow=hidden;fontSize=14;fontColor=#000000;" parent="dPK-7Pq9csTcs9CNnk73-3" vertex="1">
                    <mxGeometry x="30" width="150" height="30" as="geometry">
                        <mxRectangle width="150" height="30" as="alternateBounds"/>
                    </mxGeometry>
                </mxCell>
                <mxCell id="dPK-7Pq9csTcs9CNnk73-6" value="" style="shape=tableRow;horizontal=0;startSize=0;swimlaneHead=0;swimlaneBody=0;fillColor=none;collapsible=0;dropTarget=0;points=[[0,0.5],[1,0.5]];portConstraint=eastwest;top=0;left=0;right=0;bottom=0;fontSize=14;" parent="dPK-7Pq9csTcs9CNnk73-2" vertex="1">
                    <mxGeometry y="60" width="180" height="30" as="geometry"/>
                </mxCell>
                <mxCell id="dPK-7Pq9csTcs9CNnk73-7" value="" style="shape=partialRectangle;connectable=0;fillColor=none;top=0;left=0;bottom=0;right=0;editable=1;overflow=hidden;fontSize=14;" parent="dPK-7Pq9csTcs9CNnk73-6" vertex="1">
                    <mxGeometry width="30" height="30" as="geometry">
                        <mxRectangle width="30" height="30" as="alternateBounds"/>
                    </mxGeometry>
                </mxCell>
                <mxCell id="dPK-7Pq9csTcs9CNnk73-8" value="public_place" style="shape=partialRectangle;connectable=0;fillColor=none;top=0;left=0;bottom=0;right=0;align=left;spacingLeft=6;overflow=hidden;fontSize=14;fontColor=#000000;" parent="dPK-7Pq9csTcs9CNnk73-6" vertex="1">
                    <mxGeometry x="30" width="150" height="30" as="geometry">
                        <mxRectangle width="150" height="30" as="alternateBounds"/>
                    </mxGeometry>
                </mxCell>
                <mxCell id="dPK-7Pq9csTcs9CNnk73-9" value="" style="shape=tableRow;horizontal=0;startSize=0;swimlaneHead=0;swimlaneBody=0;fillColor=none;collapsible=0;dropTarget=0;points=[[0,0.5],[1,0.5]];portConstraint=eastwest;top=0;left=0;right=0;bottom=0;fontSize=14;" parent="dPK-7Pq9csTcs9CNnk73-2" vertex="1">
                    <mxGeometry y="90" width="180" height="30" as="geometry"/>
                </mxCell>
                <mxCell id="dPK-7Pq9csTcs9CNnk73-10" value="" style="shape=partialRectangle;connectable=0;fillColor=none;top=0;left=0;bottom=0;right=0;editable=1;overflow=hidden;fontSize=14;" parent="dPK-7Pq9csTcs9CNnk73-9" vertex="1">
                    <mxGeometry width="30" height="30" as="geometry">
                        <mxRectangle width="30" height="30" as="alternateBounds"/>
                    </mxGeometry>
                </mxCell>
                <mxCell id="dPK-7Pq9csTcs9CNnk73-11" value="addres_name" style="shape=partialRectangle;connectable=0;fillColor=none;top=0;left=0;bottom=0;right=0;align=left;spacingLeft=6;overflow=hidden;fontSize=14;fontColor=#000000;" parent="dPK-7Pq9csTcs9CNnk73-9" vertex="1">
                    <mxGeometry x="30" width="150" height="30" as="geometry">
                        <mxRectangle width="150" height="30" as="alternateBounds"/>
                    </mxGeometry>
                </mxCell>
                <mxCell id="dPK-7Pq9csTcs9CNnk73-12" value="" style="shape=tableRow;horizontal=0;startSize=0;swimlaneHead=0;swimlaneBody=0;fillColor=none;collapsible=0;dropTarget=0;points=[[0,0.5],[1,0.5]];portConstraint=eastwest;top=0;left=0;right=0;bottom=0;fontSize=14;" parent="dPK-7Pq9csTcs9CNnk73-2" vertex="1">
                    <mxGeometry y="120" width="180" height="30" as="geometry"/>
                </mxCell>
                <mxCell id="dPK-7Pq9csTcs9CNnk73-13" value="" style="shape=partialRectangle;connectable=0;fillColor=none;top=0;left=0;bottom=0;right=0;editable=1;overflow=hidden;fontSize=14;" parent="dPK-7Pq9csTcs9CNnk73-12" vertex="1">
                    <mxGeometry width="30" height="30" as="geometry">
                        <mxRectangle width="30" height="30" as="alternateBounds"/>
                    </mxGeometry>
                </mxCell>
                <mxCell id="dPK-7Pq9csTcs9CNnk73-14" value="number" style="shape=partialRectangle;connectable=0;fillColor=none;top=0;left=0;bottom=0;right=0;align=left;spacingLeft=6;overflow=hidden;fontSize=14;fontColor=#000000;" parent="dPK-7Pq9csTcs9CNnk73-12" vertex="1">
                    <mxGeometry x="30" width="150" height="30" as="geometry">
                        <mxRectangle width="150" height="30" as="alternateBounds"/>
                    </mxGeometry>
                </mxCell>
                <mxCell id="dPK-7Pq9csTcs9CNnk73-15" value="" style="shape=tableRow;horizontal=0;startSize=0;swimlaneHead=0;swimlaneBody=0;fillColor=none;collapsible=0;dropTarget=0;points=[[0,0.5],[1,0.5]];portConstraint=eastwest;top=0;left=0;right=0;bottom=0;fontSize=14;" parent="dPK-7Pq9csTcs9CNnk73-2" vertex="1">
                    <mxGeometry y="150" width="180" height="30" as="geometry"/>
                </mxCell>
                <mxCell id="dPK-7Pq9csTcs9CNnk73-16" value="" style="shape=partialRectangle;connectable=0;fillColor=none;top=0;left=0;bottom=0;right=0;editable=1;overflow=hidden;fontSize=14;" parent="dPK-7Pq9csTcs9CNnk73-15" vertex="1">
                    <mxGeometry width="30" height="30" as="geometry">
                        <mxRectangle width="30" height="30" as="alternateBounds"/>
                    </mxGeometry>
                </mxCell>
                <mxCell id="dPK-7Pq9csTcs9CNnk73-17" value="cep" style="shape=partialRectangle;connectable=0;fillColor=none;top=0;left=0;bottom=0;right=0;align=left;spacingLeft=6;overflow=hidden;fontSize=14;fontColor=#000000;" parent="dPK-7Pq9csTcs9CNnk73-15" vertex="1">
                    <mxGeometry x="30" width="150" height="30" as="geometry">
                        <mxRectangle width="150" height="30" as="alternateBounds"/>
                    </mxGeometry>
                </mxCell>
                <mxCell id="dPK-7Pq9csTcs9CNnk73-18" value="" style="shape=tableRow;horizontal=0;startSize=0;swimlaneHead=0;swimlaneBody=0;fillColor=none;collapsible=0;dropTarget=0;points=[[0,0.5],[1,0.5]];portConstraint=eastwest;top=0;left=0;right=0;bottom=0;fontSize=14;" parent="dPK-7Pq9csTcs9CNnk73-2" vertex="1">
                    <mxGeometry y="180" width="180" height="30" as="geometry"/>
                </mxCell>
                <mxCell id="dPK-7Pq9csTcs9CNnk73-19" value="" style="shape=partialRectangle;connectable=0;fillColor=none;top=0;left=0;bottom=0;right=0;editable=1;overflow=hidden;fontSize=14;" parent="dPK-7Pq9csTcs9CNnk73-18" vertex="1">
                    <mxGeometry width="30" height="30" as="geometry">
                        <mxRectangle width="30" height="30" as="alternateBounds"/>
                    </mxGeometry>
                </mxCell>
                <mxCell id="dPK-7Pq9csTcs9CNnk73-20" value="complement" style="shape=partialRectangle;connectable=0;fillColor=none;top=0;left=0;bottom=0;right=0;align=left;spacingLeft=6;overflow=hidden;fontSize=14;fontColor=#000000;" parent="dPK-7Pq9csTcs9CNnk73-18" vertex="1">
                    <mxGeometry x="30" width="150" height="30" as="geometry">
                        <mxRectangle width="150" height="30" as="alternateBounds"/>
                    </mxGeometry>
                </mxCell>
                <mxCell id="dPK-7Pq9csTcs9CNnk73-21" value="" style="shape=tableRow;horizontal=0;startSize=0;swimlaneHead=0;swimlaneBody=0;fillColor=none;collapsible=0;dropTarget=0;points=[[0,0.5],[1,0.5]];portConstraint=eastwest;top=0;left=0;right=0;bottom=0;fontSize=14;" parent="dPK-7Pq9csTcs9CNnk73-2" vertex="1">
                    <mxGeometry y="210" width="180" height="30" as="geometry"/>
                </mxCell>
                <mxCell id="dPK-7Pq9csTcs9CNnk73-22" value="" style="shape=partialRectangle;connectable=0;fillColor=none;top=0;left=0;bottom=0;right=0;editable=1;overflow=hidden;fontSize=14;" parent="dPK-7Pq9csTcs9CNnk73-21" vertex="1">
                    <mxGeometry width="30" height="30" as="geometry">
                        <mxRectangle width="30" height="30" as="alternateBounds"/>
                    </mxGeometry>
                </mxCell>
                <mxCell id="dPK-7Pq9csTcs9CNnk73-23" value="neighborhood" style="shape=partialRectangle;connectable=0;fillColor=none;top=0;left=0;bottom=0;right=0;align=left;spacingLeft=6;overflow=hidden;fontSize=14;fontColor=#000000;" parent="dPK-7Pq9csTcs9CNnk73-21" vertex="1">
                    <mxGeometry x="30" width="150" height="30" as="geometry">
                        <mxRectangle width="150" height="30" as="alternateBounds"/>
                    </mxGeometry>
                </mxCell>
                <mxCell id="dPK-7Pq9csTcs9CNnk73-24" value="" style="shape=tableRow;horizontal=0;startSize=0;swimlaneHead=0;swimlaneBody=0;fillColor=none;collapsible=0;dropTarget=0;points=[[0,0.5],[1,0.5]];portConstraint=eastwest;top=0;left=0;right=0;bottom=0;fontSize=14;" parent="dPK-7Pq9csTcs9CNnk73-2" vertex="1">
                    <mxGeometry y="240" width="180" height="30" as="geometry"/>
                </mxCell>
                <mxCell id="dPK-7Pq9csTcs9CNnk73-25" value="" style="shape=partialRectangle;connectable=0;fillColor=none;top=0;left=0;bottom=0;right=0;fontStyle=0;overflow=hidden;fontSize=14;" parent="dPK-7Pq9csTcs9CNnk73-24" vertex="1">
                    <mxGeometry width="30" height="30" as="geometry">
                        <mxRectangle width="30" height="30" as="alternateBounds"/>
                    </mxGeometry>
                </mxCell>
                <mxCell id="dPK-7Pq9csTcs9CNnk73-26" value="city" style="shape=partialRectangle;connectable=0;fillColor=none;top=0;left=0;bottom=0;right=0;align=left;spacingLeft=6;fontStyle=0;overflow=hidden;fontSize=14;fontColor=#000000;" parent="dPK-7Pq9csTcs9CNnk73-24" vertex="1">
                    <mxGeometry x="30" width="150" height="30" as="geometry">
                        <mxRectangle width="150" height="30" as="alternateBounds"/>
                    </mxGeometry>
                </mxCell>
                <mxCell id="dPK-7Pq9csTcs9CNnk73-27" value="" style="shape=tableRow;horizontal=0;startSize=0;swimlaneHead=0;swimlaneBody=0;fillColor=none;collapsible=0;dropTarget=0;points=[[0,0.5],[1,0.5]];portConstraint=eastwest;top=0;left=0;right=0;bottom=0;fontSize=14;" parent="dPK-7Pq9csTcs9CNnk73-2" vertex="1">
                    <mxGeometry y="270" width="180" height="22" as="geometry"/>
                </mxCell>
                <mxCell id="dPK-7Pq9csTcs9CNnk73-28" value="" style="shape=partialRectangle;connectable=0;fillColor=none;top=0;left=0;bottom=0;right=0;fontStyle=0;overflow=hidden;fontSize=14;" parent="dPK-7Pq9csTcs9CNnk73-27" vertex="1">
                    <mxGeometry width="30" height="22" as="geometry">
                        <mxRectangle width="30" height="22" as="alternateBounds"/>
                    </mxGeometry>
                </mxCell>
                <mxCell id="dPK-7Pq9csTcs9CNnk73-29" value="country" style="shape=partialRectangle;connectable=0;fillColor=none;top=0;left=0;bottom=0;right=0;align=left;spacingLeft=6;fontStyle=0;overflow=hidden;fontSize=14;fontColor=#000000;" parent="dPK-7Pq9csTcs9CNnk73-27" vertex="1">
                    <mxGeometry x="30" width="150" height="22" as="geometry">
                        <mxRectangle width="150" height="22" as="alternateBounds"/>
                    </mxGeometry>
                </mxCell>
                <mxCell id="dPK-7Pq9csTcs9CNnk73-30" value="" style="shape=tableRow;horizontal=0;startSize=0;swimlaneHead=0;swimlaneBody=0;fillColor=none;collapsible=0;dropTarget=0;points=[[0,0.5],[1,0.5]];portConstraint=eastwest;top=0;left=0;right=0;bottom=0;fontSize=14;" parent="dPK-7Pq9csTcs9CNnk73-2" vertex="1">
                    <mxGeometry y="292" width="180" height="20" as="geometry"/>
                </mxCell>
                <mxCell id="dPK-7Pq9csTcs9CNnk73-31" value="" style="shape=partialRectangle;connectable=0;fillColor=none;top=0;left=0;bottom=0;right=0;editable=1;overflow=hidden;fontSize=14;" parent="dPK-7Pq9csTcs9CNnk73-30" vertex="1">
                    <mxGeometry width="30" height="20" as="geometry">
                        <mxRectangle width="30" height="20" as="alternateBounds"/>
                    </mxGeometry>
                </mxCell>
                <mxCell id="dPK-7Pq9csTcs9CNnk73-32" value="" style="shape=partialRectangle;connectable=0;fillColor=none;top=0;left=0;bottom=0;right=0;align=left;spacingLeft=6;overflow=hidden;fontSize=14;fontColor=#000000;" parent="dPK-7Pq9csTcs9CNnk73-30" vertex="1">
                    <mxGeometry x="30" width="150" height="20" as="geometry">
                        <mxRectangle width="150" height="20" as="alternateBounds"/>
                    </mxGeometry>
                </mxCell>
                <mxCell id="dPK-7Pq9csTcs9CNnk73-33" value="parent_student" style="swimlane;childLayout=stackLayout;horizontal=1;startSize=30;horizontalStack=0;rounded=1;fontSize=14;fontStyle=0;strokeWidth=2;resizeParent=0;resizeLast=1;shadow=0;dashed=0;align=center;labelBackgroundColor=none;labelBorderColor=none;glass=0;sketch=0;swimlaneLine=1;fillColor=#60a917;fontColor=#ffffff;strokeColor=#2D7600;arcSize=14;" parent="Catww3blxHvyXf62gdcK-1" vertex="1">
                    <mxGeometry x="-1580" y="50" width="160" height="160" as="geometry"/>
                </mxCell>
                <mxCell id="dPK-7Pq9csTcs9CNnk73-34" value="&lt;font color=&quot;#000000&quot;&gt;&lt;u&gt;cpf&lt;br&gt;&lt;/u&gt;register&lt;br&gt;first_name&lt;br&gt;surname&lt;br&gt;gender&lt;br&gt;date_birth&lt;/font&gt;" style="text;html=1;align=left;verticalAlign=top;resizable=0;points=[];autosize=1;fontSize=14;" parent="dPK-7Pq9csTcs9CNnk73-33" vertex="1">
                    <mxGeometry y="30" width="160" height="130" as="geometry"/>
                </mxCell>
                <mxCell id="dPK-7Pq9csTcs9CNnk73-35" value="&lt;span style=&quot;font-weight: 700;&quot;&gt;responsible&lt;/span&gt;" style="shape=rhombus;perimeter=rhombusPerimeter;whiteSpace=wrap;html=1;align=center;fontSize=22;fillColor=none;strokeColor=#000000;fontColor=#000000;" parent="Catww3blxHvyXf62gdcK-1" vertex="1">
                    <mxGeometry x="-1337" y="91" width="203" height="80" as="geometry"/>
                </mxCell>
                <mxCell id="dPK-7Pq9csTcs9CNnk73-36" value="" style="edgeStyle=entityRelationEdgeStyle;fontSize=12;html=1;endArrow=ERoneToMany;rounded=0;entryX=0;entryY=0.5;entryDx=0;entryDy=0;exitX=1;exitY=0.5;exitDx=0;exitDy=0;strokeColor=#000000;" parent="Catww3blxHvyXf62gdcK-1" source="dPK-7Pq9csTcs9CNnk73-35" target="dPK-7Pq9csTcs9CNnk73-0" edge="1">
                    <mxGeometry width="100" height="100" relative="1" as="geometry">
                        <mxPoint x="-1254" y="41" as="sourcePoint"/>
                        <mxPoint x="-1154" y="-59" as="targetPoint"/>
                    </mxGeometry>
                </mxCell>
                <mxCell id="dPK-7Pq9csTcs9CNnk73-37" value="" style="edgeStyle=entityRelationEdgeStyle;fontSize=12;html=1;endArrow=ERoneToMany;rounded=0;entryX=1.007;entryY=0.39;entryDx=0;entryDy=0;entryPerimeter=0;exitX=0;exitY=0.5;exitDx=0;exitDy=0;strokeColor=#000000;" parent="Catww3blxHvyXf62gdcK-1" source="dPK-7Pq9csTcs9CNnk73-35" target="dPK-7Pq9csTcs9CNnk73-34" edge="1">
                    <mxGeometry width="100" height="100" relative="1" as="geometry">
                        <mxPoint x="-1254" y="41" as="sourcePoint"/>
                        <mxPoint x="-1154" y="-59" as="targetPoint"/>
                    </mxGeometry>
                </mxCell>
                <mxCell id="SVlVLu6Halhj_VPUHmY0-0" value="resides" style="shape=rhombus;perimeter=rhombusPerimeter;whiteSpace=wrap;html=1;align=center;labelBackgroundColor=none;fontColor=#000000;strokeColor=#000000;strokeWidth=1;fillColor=none;" parent="Catww3blxHvyXf62gdcK-1" vertex="1">
                    <mxGeometry x="-1560" y="340" width="120" height="60" as="geometry"/>
                </mxCell>
                <mxCell id="SVlVLu6Halhj_VPUHmY0-1" value="" style="fontSize=12;html=1;endArrow=ERmandOne;fontColor=#FFFFFF;exitX=0.5;exitY=0;exitDx=0;exitDy=0;strokeColor=#000000;" parent="Catww3blxHvyXf62gdcK-1" source="SVlVLu6Halhj_VPUHmY0-0" target="dPK-7Pq9csTcs9CNnk73-34" edge="1">
                    <mxGeometry width="100" height="100" relative="1" as="geometry">
                        <mxPoint x="-1423.5" y="406" as="sourcePoint"/>
                        <mxPoint x="-1323.5" y="306" as="targetPoint"/>
                    </mxGeometry>
                </mxCell>
                <mxCell id="SVlVLu6Halhj_VPUHmY0-2" value="" style="fontSize=12;html=1;endArrow=ERmandOne;fontColor=#FFFFFF;exitX=1;exitY=0.5;exitDx=0;exitDy=0;entryX=-0.007;entryY=0.067;entryDx=0;entryDy=0;entryPerimeter=0;strokeColor=#000000;" parent="Catww3blxHvyXf62gdcK-1" source="SVlVLu6Halhj_VPUHmY0-0" target="dPK-7Pq9csTcs9CNnk73-15" edge="1">
                    <mxGeometry width="100" height="100" relative="1" as="geometry">
                        <mxPoint x="-1497.5" y="320" as="sourcePoint"/>
                        <mxPoint x="-1397.5" y="220" as="targetPoint"/>
                    </mxGeometry>
                </mxCell>
                <mxCell id="SVlVLu6Halhj_VPUHmY0-23" value="&lt;table border=&quot;1&quot; width=&quot;100%&quot; cellpadding=&quot;4&quot; style=&quot;width: 100% ; height: 100% ; border-collapse: collapse ; font-size: 18px&quot;&gt;&lt;tbody style=&quot;font-size: 18px&quot;&gt;&lt;tr style=&quot;font-size: 18px&quot;&gt;&lt;th align=&quot;center&quot; style=&quot;font-size: 18px&quot;&gt;Modelo Físico&lt;/th&gt;&lt;/tr&gt;&lt;tr style=&quot;font-size: 18px&quot;&gt;&lt;td&gt;&lt;br style=&quot;font-size: 18px&quot;&gt;&lt;b&gt;parent_studan&lt;/b&gt;&lt;span&gt;t(&lt;/span&gt;&lt;u&gt;cpf&lt;/u&gt;&lt;span&gt;, register, first_name, surname, gender, date_birth, address_id)&lt;/span&gt;&lt;br&gt;address_id reference&lt;span&gt;&amp;nbsp;&lt;/span&gt;&lt;b&gt;address&lt;/b&gt;&lt;span&gt;(&lt;/span&gt;&lt;u&gt;id&lt;/u&gt;&lt;span&gt;)&lt;br&gt;&lt;/span&gt;&lt;br&gt;&lt;b&gt;student&lt;/b&gt;&lt;span&gt;(&lt;/span&gt;&lt;u&gt;cpf&lt;/u&gt;&lt;span&gt;, enrollment, first_name, surname, gender, date_birth)&lt;/span&gt;&lt;br&gt;&lt;b&gt;address&lt;/b&gt;&lt;span&gt;(&lt;/span&gt;&lt;u&gt;id&lt;/u&gt;&lt;span&gt;, public_place, address_name, number, cep, complement, neighborhood, city, country)&lt;/span&gt;&lt;br&gt;&lt;b&gt;&lt;br&gt;responsible&lt;/b&gt;&lt;span&gt;(&lt;/span&gt;&lt;u&gt;parent_cpf&lt;/u&gt;&lt;span&gt;, &lt;/span&gt;&lt;u&gt;student_cpf&lt;/u&gt;&lt;span&gt;)&lt;br&gt;&lt;/span&gt;parent_cpf reference&amp;nbsp;&lt;b&gt;parent_student&lt;/b&gt;(&lt;u&gt;cpf)&lt;br&gt;&lt;/u&gt;student_cpf reference&amp;nbsp;&lt;b&gt;student&lt;/b&gt;(&lt;u&gt;cpf&lt;/u&gt;)&lt;br&gt;&lt;br style=&quot;font-size: 18px&quot;&gt;&lt;/td&gt;&lt;/tr&gt;&lt;tr style=&quot;font-size: 18px&quot;&gt;&lt;td style=&quot;font-size: 18px&quot;&gt;&lt;br style=&quot;font-size: 18px&quot;&gt;&lt;/td&gt;&lt;/tr&gt;&lt;/tbody&gt;&lt;/table&gt;" style="text;html=1;strokeColor=default;fillColor=none;overflow=fill;labelBackgroundColor=none;fontColor=#000000;fontSize=18;strokeWidth=3;" parent="Catww3blxHvyXf62gdcK-1" vertex="1">
                    <mxGeometry x="-1635" y="600" width="790" height="370" as="geometry"/>
                </mxCell>
            </root>
        </mxGraphModel>
    </diagram>
</mxfile>